<?xml version="1.0" encoding="UTF-8" standalone="no"?>
<svg
   viewBox="0 0 100 100"
   version="1.1"
   id="svg2430"
   sodipodi:docname="wholesoft.svg"
   width="100"
   height="100"
   inkscape:version="1.1.1 (c3084ef, 2021-09-22)"
   xmlns:inkscape="http://www.inkscape.org/namespaces/inkscape"
   xmlns:sodipodi="http://sodipodi.sourceforge.net/DTD/sodipodi-0.dtd"
   xmlns:xlink="http://www.w3.org/1999/xlink"
   xmlns="http://www.w3.org/2000/svg"
   xmlns:svg="http://www.w3.org/2000/svg"
   xmlns:bx="https://boxy-svg.com">
  <defs
     id="defs2434">
    <linearGradient
       inkscape:collect="always"
       xlink:href="#SvgjsLinearGradient1067"
       id="linearGradient3522"
       gradientTransform="scale(0.82886617,1.2064674)"
       x1="-329.35205"
       y1="30.802242"
       x2="95.391213"
       y2="30.802242"
       gradientUnits="userSpaceOnUse" />
    <linearGradient
       inkscape:collect="always"
       xlink:href="#SvgjsLinearGradient1067"
       id="linearGradient3524"
       gradientTransform="scale(0.82886617,1.2064674)"
       x1="-329.35205"
       y1="30.802242"
       x2="95.391213"
       y2="30.802242"
       gradientUnits="userSpaceOnUse" />
    <linearGradient
       inkscape:collect="always"
       xlink:href="#SvgjsLinearGradient1067"
       id="linearGradient3526"
       gradientTransform="scale(0.82886617,1.2064674)"
       x1="-329.35205"
       y1="30.802242"
       x2="95.391213"
       y2="30.802242"
       gradientUnits="userSpaceOnUse" />
    <linearGradient
       inkscape:collect="always"
       xlink:href="#SvgjsLinearGradient1067"
       id="linearGradient3528"
       x1="0"
       y1="0"
       x2="1"
       y2="0"
       gradientUnits="userSpaceOnUse" />
    <linearGradient
       inkscape:collect="always"
       xlink:href="#SvgjsLinearGradient1067"
       id="linearGradient3530"
       x1="0"
       y1="0"
       x2="1"
       y2="0"
       gradientUnits="userSpaceOnUse" />
    <linearGradient
       inkscape:collect="always"
       xlink:href="#SvgjsLinearGradient1067"
       id="linearGradient3532"
       x1="0"
       y1="0"
       x2="1"
       y2="0"
       gradientUnits="userSpaceOnUse" />
    <linearGradient
       inkscape:collect="always"
       xlink:href="#SvgjsLinearGradient1067"
       id="linearGradient3534"
       x1="0"
       y1="0"
       x2="1"
       y2="0"
       gradientUnits="userSpaceOnUse" />
    <linearGradient
       inkscape:collect="always"
       xlink:href="#SvgjsLinearGradient1067"
       id="linearGradient3536"
       x1="0"
       y1="0"
       x2="1"
       y2="0"
       gradientUnits="userSpaceOnUse" />
    <linearGradient
       inkscape:collect="always"
       xlink:href="#SvgjsLinearGradient1067"
       id="linearGradient3538"
       x1="0"
       y1="0"
       x2="1"
       y2="0"
       gradientUnits="userSpaceOnUse" />
    <linearGradient
       inkscape:collect="always"
       xlink:href="#SvgjsLinearGradient1067"
       id="linearGradient3540"
       x1="0"
       y1="0"
       x2="1"
       y2="0"
       gradientUnits="userSpaceOnUse" />
    <linearGradient
       inkscape:collect="always"
       xlink:href="#SvgjsLinearGradient1067"
       id="linearGradient3542"
       x1="0"
       y1="0"
       x2="1"
       y2="0"
       gradientUnits="userSpaceOnUse" />
    <linearGradient
       inkscape:collect="always"
       xlink:href="#SvgjsLinearGradient1067"
       id="linearGradient3544"
       x1="0"
       y1="0"
       x2="1"
       y2="0"
       gradientUnits="userSpaceOnUse" />
    <linearGradient
       inkscape:collect="always"
       xlink:href="#SvgjsLinearGradient1067"
       id="linearGradient3546"
       x1="0"
       y1="0"
       x2="1"
       y2="0"
       gradientUnits="userSpaceOnUse" />
    <linearGradient
       inkscape:collect="always"
       xlink:href="#SvgjsLinearGradient1067"
       id="linearGradient3548"
       x1="0"
       y1="0"
       x2="1"
       y2="0"
       gradientUnits="userSpaceOnUse" />
    <linearGradient
       inkscape:collect="always"
       xlink:href="#SvgjsLinearGradient1067"
       id="linearGradient3550"
       x1="0"
       y1="0"
       x2="1"
       y2="0"
       gradientUnits="userSpaceOnUse" />
    <linearGradient
       inkscape:collect="always"
       xlink:href="#SvgjsLinearGradient1067"
       id="linearGradient3552"
       x1="0"
       y1="0"
       x2="1"
       y2="0"
       gradientUnits="userSpaceOnUse" />
    <linearGradient
       inkscape:collect="always"
       xlink:href="#SvgjsLinearGradient1067"
       id="linearGradient3554"
       x1="0"
       y1="0"
       x2="1"
       y2="0"
       gradientUnits="userSpaceOnUse" />
    <linearGradient
       inkscape:collect="always"
       xlink:href="#SvgjsLinearGradient1067"
       id="linearGradient3556"
       x1="0"
       y1="0"
       x2="1"
       y2="0"
       gradientUnits="userSpaceOnUse" />
    <linearGradient
       inkscape:collect="always"
       xlink:href="#SvgjsLinearGradient1067"
       id="linearGradient3558"
       gradientTransform="scale(0.85764855,1.1659788)"
       x1="17.722875"
       y1="1.3148572"
       x2="102.17287"
       y2="1.3148572"
       gradientUnits="userSpaceOnUse" />
  </defs>
  <sodipodi:namedview
     id="namedview2432"
     pagecolor="#ffffff"
     bordercolor="#666666"
     borderopacity="1.0"
     inkscape:pageshadow="2"
     inkscape:pageopacity="0.0"
     inkscape:pagecheckerboard="0"
     showgrid="false"
     fit-margin-top="0"
     fit-margin-left="0"
     fit-margin-right="0"
     fit-margin-bottom="0"
     inkscape:zoom="4.3759247"
     inkscape:cx="47.647072"
     inkscape:cy="74.384278"
     inkscape:window-width="1280"
     inkscape:window-height="623"
     inkscape:window-x="0"
     inkscape:window-y="25"
     inkscape:window-maximized="0"
     inkscape:current-layer="svg2430" />
  <g
     class="wrap"
     transform="translate(34.367435,49.918903)"
     id="g2428">
    <defs
       class="background"
       id="defs2378">
      <mask
         id="mask">
        <path
           fill="#ffffff"
           stroke="none"
           d="M 85.35,85.35 Q 100,70.65 100,50 100,29.3 85.35,14.7 70.65,0 50,0 29.3,0 14.6,14.7 0,29.3 0,50 0,70.65 14.6,85.35 29.3,100 50,100 70.65,100 85.35,85.35 Z"
           id="path2359" />
      </mask>
      <linearGradient
         id="background-gradient"
         x1="0"
         y1="0"
         y2="100"
         x2="0"
         gradientUnits="userSpaceOnUse">
        <stop
           stop-color="#6CD330"
           offset="0"
           id="stop2362" />
        <stop
           stop-color="#6CD330"
           offset="1"
           id="stop2364" />
      </linearGradient>
      <filter
         width="1.2071405"
         height="1.1423095"
         x="-0.08000001"
         y="-0.054961537"
         id="SvgjsFilter1066">
        <feGaussianBlur
           id="SvgjsFeGaussianBlur1061"
           result="SvgjsFeGaussianBlur1061"
           in="SourceAlpha"
           stdDeviation="2 2" />
        <feOffset
           id="SvgjsFeOffset1062"
           result="SvgjsFeOffset1062"
           in="SvgjsFeGaussianBlur1061"
           dy="2.82842712474619"
           dx="2.8284271247461903" />
        <feFlood
           id="SvgjsFeFlood1063"
           result="SvgjsFeFlood1063"
           in="SourceGraphic"
           flood-opacity="1"
           flood-color="#56565c" />
        <feComposite
           id="SvgjsFeComposite1064"
           result="SvgjsFeComposite1064"
           in="SvgjsFeFlood1063"
           operator="in"
           in2="SvgjsFeOffset1062" />
        <feBlend
           id="SvgjsFeBlend1065"
           result="SvgjsFeBlend1065"
           in="SourceGraphic"
           in2="SvgjsFeComposite1064"
           mode="normal" />
      </filter>
      <linearGradient
         class="shapgradient"
         gradientTransform="rotate(-125,0.5,0.5)"
         id="SvgjsLinearGradient1067">
        <stop
           stop-color="#ffffff"
           offset="0"
           id="stop2373" />
        <stop
           stop-color="#ffffff"
           offset="0"
           id="stop2375" />
      </linearGradient>
    </defs>
    <g
       transform="translate(-34.367435,-49.918903)"
       fill="url(#background-gradient)"
       id="g2382"
       style="fill:url(#background-gradient)">
      <path
         stroke="none"
         d="M 85.35,85.35 Q 100,70.65 100,50 100,29.3 85.35,14.7 70.65,0 50,0 29.3,0 14.6,14.7 0,29.3 0,50 0,70.65 14.6,85.35 29.3,100 50,100 70.65,100 85.35,85.35 Z"
         style="fill:#295bac"
         id="path2380" />
    </g>
    <g
       transform="matrix(0.99844,0,0,0.99844,-34.264473,-49.851589)"
       bx:origin="0.613625 0.5"
       id="g2386">
      <path
         fill-opacity="0.6"
         stroke="none"
         d="M 84,84 Q 98.05,70 98.05,50 98.05,30.1 84,16.05 69.9,1.9 50,1.9 30.1,1.9 16.05,16.05 1.9,30.1 1.9,50 1.9,70 16.05,84 30.1,98.05 50,98.05 69.9,98.05 84,84 Z"
         style="fill:#abc9fb;paint-order:stroke markers"
         id="path2384" />
    </g>
    <g
       class="geditable"
       mask="url(#mask)"
       transform="matrix(0.989011,0,0,1.006621,-33.817974,-50.285622)"
       id="g2426">
      <g
         mask="url(#mask)"
         fill="url(#SvgjsLinearGradient1067)"
         class="editable"
         transform="matrix(0.91,0,0,0.91,4.4999991,4.5000001)"
         filter="url(#SvgjsFilter1066)"
         id="g2424"
         style="fill:url(#linearGradient3558)">
        <g
           transform="matrix(0.17042774,0,0,0.17042774,66.524857,-3.2318141e-4)"
           id="g2392"
           style="fill:url(#linearGradient3526)">
          <g
             id="g2390"
             style="fill:url(#linearGradient3524)">
            <path
               d="m 46.861413,346.86229 c 17.728,-20.432 29.152,-46.816 32.112,-74.24 0.624,-5.776 -1.92,-11.424 -6.656,-14.784 -4.736,-3.36 -10.928,-3.904 -16.16,-1.376 -2.672,1.28 -5.328,2.48 -7.968,3.616 0.544,-0.928 1.056,-1.856 1.584,-2.8 11.216,-20.672 15.632,-44.992 12.416,-68.496 -0.928,-6.752 -6.016,-12.192 -12.704,-13.52 -6.688,-1.344 -13.488,1.696 -16.944,7.584 -3.52,6 -7.36,10.976 -11.488,14.896 0.32,-55.76 -17.9839997,-108.671998 -53.664,-154.415998 -4.256,-5.44 -11.536,-7.568 -18,-5.216 -6.496,2.32 -10.768,8.56 -10.608,15.456 0.656,26.512 -21.376,49.071998 -42.208003,61.343998 -11.984,7.056 -24.864,12.48 -38.496,18.208 -14.992,6.304 -30.48,12.816 -45.152,21.84 -62.784,38.576 -95.536,114.192 -83.424,192.656 10.96,71.056 52.64,119.392 114.416,133.36 0.624,4.976 1.328,9.808 2.176,14.272 2.512,13.504 5.52,24.288 8.144,32.24 1.264,4.096 2.256,6.592 2.928,8.56 0.672,1.888 1.04,2.912 1.04,2.912 0.096,0.272 0.224,0.592 0.336,0.864 3.44,8.144 12.832,11.952 20.976,8.512 8.144,-3.44 11.952,-12.832 8.512,-20.976 0,0 -0.416,-0.992 -1.2,-2.848 -0.736,-1.792 -2.064,-4.736 -3.168,-7.776 -2.464,-6.176 -5.824,-15.952 -8.704,-27.632 -0.32,-1.296 -0.544,-2.912 -0.864,-4.272 1.936,0.08 3.84,0.304 5.792,0.304 h 1.328 c 60.400003,0 141.392003,-24.672 170.816003,-94.224 2.736,-6.448 0.944,-13.936 -4.4,-18.448 -5.344,-4.512 -13.008,-5.04 -18.928,-1.28 -5.2,3.312 -10.72,4.576 -16.608,3.904 13.024,-7.232 24.864,-16.8 34.768,-28.224 z m -75.056,9.76 c -5.664,1.264 -10.192,5.472 -11.856,11.024 -1.664,5.552 -0.192,11.568 3.84,15.728 12.096,12.48 26.3360003,20.432 40.9280003,23.008 -30.7040003,34 -82.5760003,46.784 -123.4880033,46.784 h -1.152 v 0 c -3.68,-0.016 -7.28,-0.288 -10.864,-0.576 -1.376,-16.496 -1.36,-34.352 1.312,-52.208 1.248,-8.24 2.72,-16.16 4.736,-23.92 2.048,-7.792 4.288,-15.424 7.008,-22.624 5.248,-14.48 11.808,-27.376 18.112003,-38 6.32,-10.624 12.544,-18.896 17.104,-24.48 4.544,-5.616 7.36,-8.64 7.36,-8.64 2.848,-3.088 2.864,-7.904 -0.08,-10.976 -3.056,-3.184 -8.112,-3.312 -11.312,-0.256 l -0.128,0.128 c 0,0 -3.232,3.088 -8.48,8.864 -5.280003,5.744 -12.528003,14.288 -20.048003,25.392 -7.504,11.104 -15.424,24.688 -22.08,40.128 -3.424,7.68 -6.368,15.872 -9.104,24.288 -2.736,8.464 -4.928,17.344 -6.736,26 -3.584,17.072 -5.024,34.432 -5.04,50.864 -43.184,-13.616 -72.432,-50.832 -80.688,-104.4 -10.128,-65.68 16.768,-128.688 68.544,-160.512 12.592,-7.744 26.304,-13.504 40.8,-19.6 14.016,-5.904 28.512,-12 42.336003,-20.144 22.496,-13.248 39.312,-30.768 48.896,-50.159998 22.256,39.695998 31.1520003,83.983998 25.856,129.823998 -0.576,4.976 1.2,9.936 4.8160003,13.392 3.616,3.456 8.64,5.072 13.6,4.24 6.8959997,-1.088 13.4879997,-3.264 19.6959997,-6.432 -1.168,2.96 -2.512,5.84 -4.016,8.64 -7.92,14.576 -20.3519997,26.112 -35.024,32.496 -7.024,3.056 -10.912,10.672 -9.248,18.144 1.664,7.488 8.688,12.672 16.0640003,12.512 15.472,-0.432 30.9119997,-3.072 46.6719997,-8 -4.24,10.56 -10.144,20.352 -17.472,28.8 -13.3919997,15.456 -31.4559997,26.336 -50.864,30.672 z"
               id="path2388"
               style="fill:url(#linearGradient3522)"
               sodipodi:nodetypes="ccsccccccccccccccccccccscccccsscsccccssccccccccccccccccccccccccccsccccccccc" />
          </g>
        </g>
        <g
           transform="matrix(0.17042774,0,0,0.17042774,66.524857,-3.2318141e-4)"
           id="g2394"
           style="fill:url(#linearGradient3528)" />
        <g
           transform="matrix(0.17042774,0,0,0.17042774,66.524857,-3.2318141e-4)"
           id="g2396"
           style="fill:url(#linearGradient3530)" />
        <g
           transform="matrix(0.17042774,0,0,0.17042774,66.524857,-3.2318141e-4)"
           id="g2398"
           style="fill:url(#linearGradient3532)" />
        <g
           transform="matrix(0.17042774,0,0,0.17042774,66.524857,-3.2318141e-4)"
           id="g2400"
           style="fill:url(#linearGradient3534)" />
        <g
           transform="matrix(0.17042774,0,0,0.17042774,66.524857,-3.2318141e-4)"
           id="g2402"
           style="fill:url(#linearGradient3536)" />
        <g
           transform="matrix(0.17042774,0,0,0.17042774,66.524857,-3.2318141e-4)"
           id="g2404"
           style="fill:url(#linearGradient3538)" />
        <g
           transform="matrix(0.17042774,0,0,0.17042774,66.524857,-3.2318141e-4)"
           id="g2406"
           style="fill:url(#linearGradient3540)" />
        <g
           transform="matrix(0.17042774,0,0,0.17042774,66.524857,-3.2318141e-4)"
           id="g2408"
           style="fill:url(#linearGradient3542)" />
        <g
           transform="matrix(0.17042774,0,0,0.17042774,66.524857,-3.2318141e-4)"
           id="g2410"
           style="fill:url(#linearGradient3544)" />
        <g
           transform="matrix(0.17042774,0,0,0.17042774,66.524857,-3.2318141e-4)"
           id="g2412"
           style="fill:url(#linearGradient3546)" />
        <g
           transform="matrix(0.17042774,0,0,0.17042774,66.524857,-3.2318141e-4)"
           id="g2414"
           style="fill:url(#linearGradient3548)" />
        <g
           transform="matrix(0.17042774,0,0,0.17042774,66.524857,-3.2318141e-4)"
           id="g2416"
           style="fill:url(#linearGradient3550)" />
        <g
           transform="matrix(0.17042774,0,0,0.17042774,66.524857,-3.2318141e-4)"
           id="g2418"
           style="fill:url(#linearGradient3552)" />
        <g
           transform="matrix(0.17042774,0,0,0.17042774,66.524857,-3.2318141e-4)"
           id="g2420"
           style="fill:url(#linearGradient3554)" />
        <g
           transform="matrix(0.17042774,0,0,0.17042774,66.524857,-3.2318141e-4)"
           id="g2422"
           style="fill:url(#linearGradient3556)" />
      </g>
    </g>
  </g>
</svg>
